<svg width="18" height="18" viewBox="0 0 18 18" fill="none" xmlns="http://www.w3.org/2000/svg">
<g clip-path="url(#clip0_62:40)">
<path d="M14.8537 9.45145C14.8289 7.20189 17.1108 6.12191 17.214 6.06926C15.93 4.54005 13.9316 4.33055 13.2187 4.30591C11.519 4.16587 9.90048 5.12036 9.03893 5.12036C8.17738 5.12036 6.84515 4.32608 5.43584 4.34848C3.58061 4.37089 1.87265 5.22568 0.917512 6.57676C-1.0079 9.29573 0.426182 13.3255 2.30067 15.5324C3.21865 16.6113 4.31141 17.8268 5.74825 17.782C7.13278 17.7372 7.65577 17.0538 9.32658 17.0538C10.9974 17.0538 11.4681 17.782 12.931 17.7607C14.4188 17.7372 15.3629 16.6583 16.274 15.5761C17.3255 14.3236 17.7604 13.1115 17.7852 13.0476C17.7522 13.0364 14.884 12.1413 14.8537 9.45145Z" fill="black"/>
<path d="M12.1052 2.84596C12.8677 2.09424 13.3824 1.04898 13.2406 0.00714111C12.1423 0.0430295 10.8129 0.603153 10.0242 1.35488C9.31823 2.01924 8.69891 3.0835 8.86674 4.10413C10.0917 4.18143 11.3427 3.59658 12.1052 2.84596Z" fill="black"/>
</g>
<defs>
<clipPath id="clip0_62:40">
<rect width="17.79" height="17.79" rx="4" fill="white"/>
</clipPath>
</defs>
</svg>
